<?xml version="1.0" encoding="UTF-8"?>
<!DOCTYPE svg PUBLIC "-//W3C//DTD SVG 1.1//EN" "http://www.w3.org/Graphics/SVG/1.1/DTD/svg11.dtd">
<svg xmlns="http://www.w3.org/2000/svg" version="1.1" width="2984px" height="2956px" style="shape-rendering:geometricPrecision; text-rendering:geometricPrecision; image-rendering:optimizeQuality; fill-rule:evenodd; clip-rule:evenodd" xmlns:xlink="http://www.w3.org/1999/xlink">
<g><path style="opacity:0.004" fill="#fe0000" d="M 1531.5,51.5 C 1532.25,50.4265 1533.25,50.2599 1534.5,51C 1533.55,51.4828 1532.55,51.6495 1531.5,51.5 Z"/></g>
<g><path style="opacity:0.997" fill="#f0dece" d="M 1470.5,2926.5 C 1470.67,2925.51 1470.34,2924.84 1469.5,2924.5C 1426.63,2923.97 1383.96,2920.81 1341.5,2915C 1326.07,2912.66 1310.74,2910.32 1295.5,2908C 1074.55,2870.98 865.548,2784.98 668.5,2650C 473.266,2515.1 316.433,2345.94 198,2142.5C 123.26,2009.97 70.9266,1871.64 41,1727.5C 40.2602,1721.84 39.5935,1716.18 39,1710.5C 38.6667,1711.17 38.3333,1711.83 38,1712.5C 36.8393,1705.52 35.8393,1698.52 35,1691.5C 34.6667,1691.83 34.3333,1692.17 34,1692.5C 30.0722,1665.53 26.4056,1638.53 23,1611.5C 22.6667,1611.83 22.3333,1612.17 22,1612.5C 20.8477,1595.67 19.1811,1579 17,1562.5C 15.4666,1522.33 13.9666,1482.17 12.5,1442C 12.4037,1439.63 12.9037,1437.46 14,1435.5C 14.1492,1407.77 15.1492,1382.77 17,1360.5C 17.3333,1361.5 17.6667,1362.5 18,1363.5C 20.3637,1317.48 25.5304,1272.48 33.5,1228.5C 39.5051,1201.13 45.6717,1173.13 52,1144.5C 59.2709,1116.74 66.6042,1090.41 74,1065.5C 86.2467,1033.62 98.2467,1001.62 110,969.5C 139.441,900.493 174.275,833.159 214.5,767.5C 244.557,721.443 276.557,676.776 310.5,633.5C 330.484,611.342 349.984,588.676 369,565.5C 540.645,378.774 743.811,240.607 978.5,151C 1045.68,126.896 1112.68,106.896 1179.5,91C 1241.84,78.1729 1305.51,67.6729 1370.5,59.5C 1372.43,59.5396 1374.26,59.8729 1376,60.5C 1378.07,58.3517 1380.41,58.0183 1383,59.5C 1396.61,57.587 1410.27,56.2537 1424,55.5C 1426.74,56.6105 1429.57,56.7772 1432.5,56C 1431.5,55.6667 1430.5,55.3333 1429.5,55C 1441.36,54.3689 1453.2,53.5356 1465,52.5C 1467.46,53.0803 1469.96,53.4136 1472.5,53.5C 1485.48,52.4424 1498.48,51.7757 1511.5,51.5C 1535.84,51.6836 1560.17,51.6836 1584.5,51.5C 1594.19,52.747 1603.86,53.247 1613.5,53C 1612.17,53.3333 1610.83,53.6667 1609.5,54C 1623.67,53.6882 1637.83,54.1882 1652,55.5C 1695.81,54.2253 1739.65,54.392 1783.5,56C 1823.17,58.0836 1861.17,67.0836 1897.5,83C 1914.2,89.2293 1930.53,96.2293 1946.5,104C 2028.31,151.239 2112.31,194.239 2198.5,233C 2214.29,241.064 2229.96,249.397 2245.5,258C 2288.9,286.394 2332.57,314.394 2376.5,342C 2399.03,358.194 2420.7,375.527 2441.5,394C 2497.95,449.766 2551.45,507.932 2602,568.5C 2625.14,597.44 2645.81,628.107 2664,660.5C 2692.23,716.681 2722.9,771.348 2756,824.5C 2810.32,921.122 2850.32,1023.46 2876,1131.5C 2889.62,1195.98 2902.29,1260.65 2914,1325.5C 2929.2,1437.72 2930.2,1550.05 2917,1662.5C 2902.17,1789.31 2873.84,1912.98 2832,2033.5C 2817.26,2074.07 2801.92,2114.4 2786,2154.5C 2748.17,2246.21 2694.83,2327.54 2626,2398.5C 2589.7,2443.48 2551.2,2486.65 2510.5,2528C 2474.1,2560.4 2435.44,2589.74 2394.5,2616C 2355.03,2655.16 2312.36,2690.16 2266.5,2721C 2105.34,2816.41 1932.34,2879.41 1747.5,2910C 1654.85,2923.4 1562.52,2928.9 1470.5,2926.5 Z"/></g>
<g><path style="opacity:1" fill="#d7bda5" d="M 2505.5,1272.5 C 2509.5,1299.5 2513.67,1326.5 2518,1353.5C 2527.74,1421.53 2530.74,1489.87 2527,1558.5C 2523.83,1579.68 2521.83,1601.01 2521,1622.5C 2516.61,1650.47 2511.94,1678.47 2507,1706.5C 2499.22,1731 2490.72,1755.34 2481.5,1779.5C 2445.31,1851.13 2404.48,1919.79 2359,1985.5C 2319.21,2041.06 2276.54,2094.4 2231,2145.5C 2212.34,2165.25 2192.51,2183.75 2171.5,2201C 2169.39,2202.26 2168.39,2204.1 2168.5,2206.5C 2143.47,2227.67 2118.47,2249.17 2093.5,2271C 2074.45,2285.72 2055.12,2300.05 2035.5,2314C 2005.7,2331.4 1976.03,2349.07 1946.5,2367C 1926.71,2378.22 1906.71,2388.89 1886.5,2399C 1830.75,2422.22 1772.75,2437.22 1712.5,2444C 1633.46,2453.35 1554.13,2458.02 1474.5,2458C 1408.56,2462.71 1342.56,2463.71 1276.5,2461C 1235.9,2457.95 1196.57,2449.28 1158.5,2435C 1106.54,2413.85 1056.21,2389.19 1007.5,2361C 975.008,2339.25 942.008,2318.25 908.5,2298C 872.211,2270.38 839.044,2239.22 809,2204.5C 770.75,2160 736.417,2112.66 706,2062.5C 678.459,2014.42 652.792,1965.42 629,1915.5C 613.192,1883.88 596.858,1852.55 580,1821.5C 556.811,1770.61 537.144,1718.28 521,1664.5C 514.46,1643.22 508.127,1621.88 502,1600.5C 482.268,1519.72 477.934,1438.06 489,1355.5C 495.562,1291.24 507.229,1227.9 524,1165.5C 536.048,1125.02 551.048,1085.69 569,1047.5C 607.494,970.161 649.828,895.161 696,822.5C 729.567,776.593 768.4,735.426 812.5,699C 843.768,663.389 878.435,631.722 916.5,604C 959.799,572.006 1005.13,543.006 1052.5,517C 1083.4,500.478 1115.73,487.478 1149.5,478C 1186.37,467.897 1223.7,460.563 1261.5,456C 1421.65,442.928 1580.98,449.262 1739.5,475C 1791.01,485.21 1841.67,498.543 1891.5,515C 1924.05,527.946 1955.38,542.946 1985.5,560C 2044.16,596.638 2098.82,638.638 2149.5,686C 2171.7,707.861 2193.53,730.028 2215,752.5C 2260.54,807.717 2307.21,862.051 2355,915.5C 2382.85,950.491 2406.18,988.491 2425,1029.5C 2439.99,1064.47 2454.66,1099.47 2469,1134.5C 2485.34,1179.37 2497.51,1225.37 2505.5,1272.5 Z"/></g>
<g><path style="opacity:1" fill="#d4baa1" d="M 2471.5,1199.5 C 2456.96,1187.6 2440.29,1183.1 2421.5,1186C 2378.34,1198.48 2347.51,1225.31 2329,1266.5C 2326.93,1272.29 2325.1,1278.12 2323.5,1284C 2249.59,1300.07 2174.93,1305.41 2099.5,1300C 2014.8,1289.6 1935.8,1262.77 1862.5,1219.5C 1809.01,1182.24 1756.35,1143.74 1704.5,1104C 1648.94,1062.13 1590.94,1023.8 1530.5,989C 1480.38,961.182 1427.38,940.848 1371.5,928C 1227.06,902.285 1095.06,931.619 975.5,1016C 959.584,1027.91 944.251,1040.58 929.5,1054C 910.932,1072.56 893.099,1091.73 876,1111.5C 859.44,1131.63 843.606,1152.29 828.5,1173.5C 817.345,1157 804.345,1142 789.5,1128.5C 741.432,1085.99 686.765,1074.49 625.5,1094C 591.596,1108.08 564.929,1130.58 545.5,1161.5C 545.336,1158.81 545.503,1156.15 546,1153.5C 548.605,1146.2 551.272,1138.86 554,1131.5C 553.693,1126.9 555.193,1123.07 558.5,1120C 557.483,1118.95 557.316,1117.78 558,1116.5C 560.333,1111.83 562.667,1107.17 565,1102.5C 567.246,1094.36 569.912,1086.36 573,1078.5C 575.959,1075.9 577.293,1072.57 577,1068.5C 579.887,1066.25 581.22,1063.25 581,1059.5C 588.867,1045.64 595.701,1031.3 601.5,1016.5C 602.242,1015.71 603.075,1015.05 604,1014.5C 605.673,1009.35 607.673,1004.35 610,999.5C 612.788,997.588 614.121,994.921 614,991.5C 616.892,990.158 618.225,987.825 618,984.5C 620.337,980.878 622.671,977.212 625,973.5C 625.333,971.833 625.667,970.167 626,968.5C 628.333,965.167 630.667,961.833 633,958.5C 632.937,954.558 634.603,951.558 638,949.5C 638.058,946.441 639.391,944.108 642,942.5C 642.36,940.392 643.027,938.392 644,936.5C 651.706,924.051 659.039,911.385 666,898.5C 668.174,894.843 670.841,891.51 674,888.5C 674.082,885.252 675.582,882.919 678.5,881.5C 679.112,877.927 680.945,875.26 684,873.5C 686.667,868.833 689.333,864.167 692,859.5C 695.223,858.277 696.889,855.944 697,852.5C 700.667,848.167 704.333,843.833 708,839.5C 708.456,835.706 710.456,833.039 714,831.5C 716.874,827.362 719.54,823.029 722,818.5C 725.837,814.65 729.504,810.65 733,806.5C 764.305,754.193 803.805,709.026 851.5,671C 866.72,660.939 882.053,651.105 897.5,641.5C 901.235,637.749 904.901,633.916 908.5,630C 912.167,627.667 915.833,625.333 919.5,623C 920.453,621.045 921.787,619.378 923.5,618C 927.173,615.616 930.84,613.283 934.5,611C 935.743,609.846 936.743,608.512 937.5,607C 941.283,606.446 943.95,604.446 945.5,601C 954.188,595.006 963.188,589.34 972.5,584C 976.122,581.002 979.788,578.002 983.5,575C 987.159,573.39 990.826,571.723 994.5,570C 996.418,567.072 999.085,565.406 1002.5,565C 1006.11,562.15 1009.78,559.483 1013.5,557C 1018.51,554.655 1023.51,552.322 1028.5,550C 1029.84,547.108 1032.18,545.775 1035.5,546C 1037.41,543.212 1040.08,541.879 1043.5,542C 1045.46,541.047 1047.12,539.713 1048.5,538C 1052.38,537.826 1055.38,536.159 1057.5,533C 1061.25,533.22 1064.25,531.887 1066.5,529C 1072.06,527.709 1077.39,526.042 1082.5,524C 1084.75,521.113 1087.75,519.78 1091.5,520C 1092.83,519 1094.17,518 1095.5,517C 1101.53,514.939 1107.53,512.939 1113.5,511C 1115.7,508.954 1118.37,507.954 1121.5,508C 1124.54,505.125 1128.21,503.792 1132.5,504C 1135.54,501.125 1139.21,499.792 1143.5,500C 1144.17,499.333 1144.83,498.667 1145.5,498C 1148.17,497.667 1150.83,497.333 1153.5,497C 1154.17,496.333 1154.83,495.667 1155.5,495C 1164.82,492.574 1174.15,490.241 1183.5,488C 1186.81,485.952 1190.48,484.952 1194.5,485C 1196.81,482.504 1199.48,482.004 1202.5,483.5C 1207.97,481.594 1213.47,479.927 1219,478.5C 1220.14,478.911 1221.31,479.244 1222.5,479.5C 1233.96,477.234 1245.46,474.901 1257,472.5C 1260.29,473.724 1263.46,473.391 1266.5,471.5C 1269.77,472.588 1272.93,472.254 1276,470.5C 1280.29,470.306 1284.62,470.306 1289,470.5C 1293.99,469.742 1298.99,468.742 1304,467.5C 1311.66,467.441 1319.32,467.441 1327,467.5C 1328.67,466.833 1330.33,466.167 1332,465.5C 1344.52,464.908 1357.19,464.908 1370,465.5C 1371.44,464.74 1372.94,464.074 1374.5,463.5C 1387.17,463.836 1399.84,464.169 1412.5,464.5C 1414.95,462.076 1417.45,462.076 1420,464.5C 1422.75,462.027 1425.59,462.027 1428.5,464.5C 1443.65,464.105 1458.82,463.772 1474,463.5C 1475.33,464.167 1476.67,464.833 1478,465.5C 1493.76,465.339 1509.42,465.339 1525,465.5C 1526.57,466.358 1528.24,467.025 1530,467.5C 1534.33,467.167 1538.67,466.833 1543,466.5C 1547.49,467.199 1551.99,467.866 1556.5,468.5C 1559.5,467.217 1562.33,467.55 1565,469.5C 1569.3,469.152 1573.63,468.819 1578,468.5C 1579.56,469.029 1581.06,469.696 1582.5,470.5C 1589.5,470.5 1596.5,470.5 1603.5,470.5C 1605.99,472.557 1608.65,472.891 1611.5,471.5C 1616.2,471.886 1620.7,472.886 1625,474.5C 1627.83,473.13 1630.5,473.464 1633,475.5C 1634.06,474.903 1635.23,474.57 1636.5,474.5C 1641.5,474.893 1646.34,475.893 1651,477.5C 1653.76,476.346 1656.43,476.679 1659,478.5C 1660.14,478.089 1661.31,477.756 1662.5,477.5C 1667.42,478.885 1672.25,479.885 1677,480.5C 1679.98,479.691 1682.81,480.357 1685.5,482.5C 1689.67,482.674 1693.51,482.674 1697,482.5C 1707.86,484.589 1718.69,486.922 1729.5,489.5C 1730.69,489.244 1731.86,488.911 1733,488.5C 1743.82,491.213 1754.65,493.879 1765.5,496.5C 1768.64,495.463 1771.47,496.13 1774,498.5C 1777.23,497.186 1780.07,497.853 1782.5,500.5C 1783.45,500.013 1784.45,499.68 1785.5,499.5C 1787.69,500.758 1790.02,501.758 1792.5,502.5C 1794.73,501.415 1796.73,501.915 1798.5,504C 1802.7,503.8 1806.36,504.967 1809.5,507.5C 1812.27,505.943 1814.61,506.443 1816.5,509C 1831.5,513.333 1846.5,517.667 1861.5,522C 1864.2,524.792 1867.54,526.126 1871.5,526C 1875.41,528.241 1879.41,530.241 1883.5,532C 1885.83,532.333 1888.17,532.667 1890.5,533C 1894.83,535.333 1899.17,537.667 1903.5,540C 1907.25,539.78 1910.25,541.113 1912.5,544C 1916.25,543.78 1919.25,545.113 1921.5,548C 1925.57,548.356 1928.91,550.023 1931.5,553C 1935.29,552.778 1938.29,554.111 1940.5,557C 1942.71,558.044 1945.05,558.71 1947.5,559C 1952.13,561.233 1956.47,563.9 1960.5,567C 1964.44,566.937 1967.44,568.603 1969.5,572C 1971.17,572.333 1972.83,572.667 1974.5,573C 1978.11,575.85 1981.78,578.517 1985.5,581C 1990.41,582.929 1995.08,585.262 1999.5,588C 2001.62,591.296 2004.62,593.13 2008.5,593.5C 2010.29,596.566 2012.96,598.4 2016.5,599C 2017.62,600.074 2018.62,601.24 2019.5,602.5C 2026.55,606.642 2033.55,610.976 2040.5,615.5C 2042.29,618.566 2044.96,620.4 2048.5,621C 2050.07,624.419 2052.73,626.419 2056.5,627C 2057.26,628.512 2058.26,629.846 2059.5,631C 2068.17,637.386 2076.84,643.719 2085.5,650C 2086.74,651.154 2087.74,652.488 2088.5,654C 2092.17,656.384 2095.84,658.717 2099.5,661C 2105.17,666.667 2110.83,672.333 2116.5,678C 2120.38,680.506 2124.05,683.173 2127.5,686C 2130.66,689.829 2133.99,693.496 2137.5,697C 2138.83,697.667 2140.17,698.333 2141.5,699C 2144.48,702.4 2147.31,705.9 2150,709.5C 2151.44,710.26 2152.94,710.926 2154.5,711.5C 2160,717.347 2165.34,723.347 2170.5,729.5C 2175.91,734.617 2181.41,739.617 2187,744.5C 2187.97,747.972 2190.14,750.306 2193.5,751.5C 2196.28,755.279 2199.11,758.946 2202,762.5C 2205.5,765.958 2209.17,769.291 2213,772.5C 2215.18,775.384 2217.34,778.384 2219.5,781.5C 2220.91,782.624 2222.41,783.624 2224,784.5C 2226.29,787.827 2228.62,791.161 2231,794.5C 2234.49,797.406 2237.83,800.406 2241,803.5C 2245.33,809.167 2249.67,814.833 2254,820.5C 2269.99,836.833 2284.99,854.167 2299,872.5C 2300.38,874.213 2302.04,875.547 2304,876.5C 2307.91,882.64 2312.08,888.64 2316.5,894.5C 2319.2,895.562 2320.7,897.562 2321,900.5C 2322.15,901.743 2323.49,902.743 2325,903.5C 2329.33,910.459 2333.66,917.459 2338,924.5C 2341.45,926.05 2343.45,928.717 2344,932.5C 2347.38,934.563 2349.38,937.563 2350,941.5C 2351.15,942.743 2352.49,943.743 2354,944.5C 2354.26,948.702 2356.26,951.702 2360,953.5C 2360.79,957.295 2362.79,960.295 2366,962.5C 2366.37,966.659 2368.37,969.659 2372,971.5C 2372.39,975.562 2374.39,978.562 2378,980.5C 2378.46,984.752 2380.46,988.085 2384,990.5C 2383.99,994.826 2385.99,997.826 2390,999.5C 2389.94,1003.44 2391.6,1006.44 2395,1008.5C 2395.42,1010.36 2395.92,1012.19 2396.5,1014C 2399.8,1017.91 2402.63,1022.08 2405,1026.5C 2405.57,1030.44 2407.24,1033.77 2410,1036.5C 2413,1042.5 2416,1048.5 2419,1054.5C 2419.33,1056.17 2419.67,1057.83 2420,1059.5C 2422.33,1063.17 2424.67,1066.83 2427,1070.5C 2429.36,1077.95 2432.03,1085.28 2435,1092.5C 2435.62,1094.12 2436.62,1095.45 2438,1096.5C 2440.25,1104.61 2442.91,1112.61 2446,1120.5C 2448.09,1123.04 2449.09,1126.04 2449,1129.5C 2449.67,1130.17 2450.33,1130.83 2451,1131.5C 2452.59,1136.38 2453.93,1141.38 2455,1146.5C 2455.67,1147.17 2456.33,1147.83 2457,1148.5C 2459.42,1157.06 2461.76,1165.73 2464,1174.5C 2466.35,1176.71 2466.85,1179.21 2465.5,1182C 2468.03,1184.34 2469.03,1187 2468.5,1190C 2468.95,1191.73 2469.78,1193.23 2471,1194.5C 2471.49,1196.13 2471.66,1197.8 2471.5,1199.5 Z"/></g>
<g><path style="opacity:1" fill="#943b01" d="M 1862.5,1219.5 C 1850.22,1217.41 1838.05,1214.74 1826,1211.5C 1825.24,1211.57 1824.74,1211.9 1824.5,1212.5C 1822.9,1212.77 1821.57,1212.43 1820.5,1211.5C 1821.55,1211.65 1822.55,1211.48 1823.5,1211C 1814,1204.75 1804.33,1198.75 1794.5,1193C 1740.86,1152.51 1686.86,1112.51 1632.5,1073C 1595.84,1047.33 1557.84,1023.66 1518.5,1002C 1353.04,913.509 1188.37,914.842 1024.5,1006C 988.953,1027.12 956.286,1052.12 926.5,1081C 882.335,1126.65 841.001,1174.48 802.5,1224.5C 802.167,1223.83 801.833,1223.17 801.5,1222.5C 805.691,1211.12 811.191,1200.45 818,1190.5C 818.667,1189.17 818.667,1187.83 818,1186.5C 802.901,1162.28 783.735,1141.94 760.5,1125.5C 770.253,1125.89 779.919,1126.89 789.5,1128.5C 804.345,1142 817.345,1157 828.5,1173.5C 843.606,1152.29 859.44,1131.63 876,1111.5C 893.099,1091.73 910.932,1072.56 929.5,1054C 944.251,1040.58 959.584,1027.91 975.5,1016C 1095.06,931.619 1227.06,902.285 1371.5,928C 1427.38,940.848 1480.38,961.182 1530.5,989C 1590.94,1023.8 1648.94,1062.13 1704.5,1104C 1756.35,1143.74 1809.01,1182.24 1862.5,1219.5 Z"/></g>
<g><path style="opacity:1" fill="#eaa023" d="M 1820.5,1211.5 C 1770.12,1205.86 1721.79,1192.69 1675.5,1172C 1642.83,1155.33 1610.17,1138.67 1577.5,1122C 1541.75,1104.31 1504.08,1092.98 1464.5,1088C 1408.03,1084.93 1358.36,1101.6 1315.5,1138C 1307.3,1145.37 1299.3,1152.87 1291.5,1160.5C 1279.16,1172.2 1268.5,1185.2 1259.5,1199.5C 1254.5,1205.5 1250.5,1212.16 1247.5,1219.5C 1229.46,1251.32 1219.46,1285.65 1217.5,1322.5C 1216.83,1328.82 1216.5,1335.32 1216.5,1342C 1216.3,1351.39 1216.97,1360.55 1218.5,1369.5C 1230.12,1446.92 1267.46,1508.75 1330.5,1555C 1370.71,1582.6 1414.37,1602.93 1461.5,1616C 1529.6,1635.14 1598.94,1641.47 1669.5,1635C 1688.29,1634.02 1706.95,1632.02 1725.5,1629C 1734.08,1627.3 1742.41,1625.13 1750.5,1622.5C 1860.51,1602.89 1966.84,1571.05 2069.5,1527C 2110.83,1506.67 2152.17,1486.33 2193.5,1466C 2244.33,1440.18 2289.83,1407.01 2330,1366.5C 2334.05,1362.12 2337.71,1357.45 2341,1352.5C 2341.82,1351.18 2342.98,1350.51 2344.5,1350.5C 2353.55,1357.52 2363.89,1361.19 2375.5,1361.5C 2376.95,1362.3 2378.62,1362.8 2380.5,1363C 2378.57,1363.25 2376.73,1363.75 2375,1364.5C 2363.48,1401.53 2348.15,1436.86 2329,1470.5C 2320.16,1484.18 2310.83,1497.52 2301,1510.5C 2263.98,1554.86 2224.14,1596.69 2181.5,1636C 2144.95,1669.78 2103.95,1696.78 2058.5,1717C 1974.27,1740.64 1889.94,1763.47 1805.5,1785.5C 1715.89,1808.26 1625.55,1827.76 1534.5,1844C 1454.13,1858.57 1373.13,1866.4 1291.5,1867.5C 1173.33,1868.63 1060,1846.13 951.5,1800C 908.019,1779.44 866.686,1755.61 827.5,1728.5C 806.189,1673.59 789.689,1617.26 778,1559.5C 771.855,1529.11 766.355,1498.61 761.5,1468C 761.645,1467.23 761.978,1466.56 762.5,1466C 769.165,1463.33 775.499,1460.17 781.5,1456.5C 794.757,1450.77 805.924,1442.1 815,1430.5C 817.528,1425.25 819.861,1419.92 822,1414.5C 822.491,1408.29 821.491,1402.29 819,1396.5C 814.47,1390.83 808.637,1389 801.5,1391C 770.64,1408.17 737.64,1415.5 702.5,1413C 660.208,1409.29 621.208,1396.13 585.5,1373.5C 564.723,1306.89 576.556,1246.89 621,1193.5C 646.85,1162.99 678.683,1141.16 716.5,1128C 728.912,1124.39 741.579,1122.56 754.5,1122.5C 756.5,1123.5 758.5,1124.5 760.5,1125.5C 783.735,1141.94 802.901,1162.28 818,1186.5C 818.667,1187.83 818.667,1189.17 818,1190.5C 811.191,1200.45 805.691,1211.12 801.5,1222.5C 801.833,1223.17 802.167,1223.83 802.5,1224.5C 841.001,1174.48 882.335,1126.65 926.5,1081C 956.286,1052.12 988.953,1027.12 1024.5,1006C 1188.37,914.842 1353.04,913.509 1518.5,1002C 1557.84,1023.66 1595.84,1047.33 1632.5,1073C 1686.86,1112.51 1740.86,1152.51 1794.5,1193C 1804.33,1198.75 1814,1204.75 1823.5,1211C 1822.55,1211.48 1821.55,1211.65 1820.5,1211.5 Z"/></g>
<g><path style="opacity:1" fill="#190f0b" d="M 789.5,1128.5 C 779.919,1126.89 770.253,1125.89 760.5,1125.5C 758.5,1124.5 756.5,1123.5 754.5,1122.5C 720.039,1101.09 683.039,1095.26 643.5,1105C 589.462,1123.71 555.628,1160.87 542,1216.5C 532.524,1279.94 547.691,1336.61 587.5,1386.5C 588.11,1387.39 588.443,1388.39 588.5,1389.5C 594.631,1403.88 600.964,1418.22 607.5,1432.5C 557.514,1390.54 529.014,1336.87 522,1271.5C 521.5,1261.17 521.334,1250.84 521.5,1240.5C 523.055,1212.17 531.055,1185.84 545.5,1161.5C 564.929,1130.58 591.596,1108.08 625.5,1094C 686.765,1074.49 741.432,1085.99 789.5,1128.5 Z"/></g>
<g><path style="opacity:1" fill="#53382e" d="M 1820.5,1211.5 C 1821.57,1212.43 1822.9,1212.77 1824.5,1212.5C 1840.39,1225.79 1857.39,1237.62 1875.5,1248C 2001.49,1317.93 2135.16,1338.6 2276.5,1310C 2291.94,1305.97 2307.1,1301.13 2322,1295.5C 2321.6,1313.57 2326.6,1329.91 2337,1344.5C 2339.11,1347.12 2341.61,1349.12 2344.5,1350.5C 2342.98,1350.51 2341.82,1351.18 2341,1352.5C 2337.71,1357.45 2334.05,1362.12 2330,1366.5C 2289.83,1407.01 2244.33,1440.18 2193.5,1466C 2152.17,1486.33 2110.83,1506.67 2069.5,1527C 1966.84,1571.05 1860.51,1602.89 1750.5,1622.5C 1749.22,1621.1 1747.56,1620.44 1745.5,1620.5C 1716.35,1628.16 1686.85,1632.16 1657,1632.5C 1567.61,1638.83 1481.45,1624.33 1398.5,1589C 1342.75,1564.9 1297.59,1528.07 1263,1478.5C 1218.56,1406.63 1210.22,1330.96 1238,1251.5C 1238.5,1246.81 1239.17,1242.14 1240,1237.5C 1242.79,1231.59 1245.29,1225.59 1247.5,1219.5C 1250.5,1212.16 1254.5,1205.5 1259.5,1199.5C 1270.16,1186.51 1280.83,1173.51 1291.5,1160.5C 1299.3,1152.87 1307.3,1145.37 1315.5,1138C 1358.36,1101.6 1408.03,1084.93 1464.5,1088C 1504.08,1092.98 1541.75,1104.31 1577.5,1122C 1610.17,1138.67 1642.83,1155.33 1675.5,1172C 1721.79,1192.69 1770.12,1205.86 1820.5,1211.5 Z"/></g>
<g><path style="opacity:1" fill="#e2c3a5" d="M 754.5,1122.5 C 741.579,1122.56 728.912,1124.39 716.5,1128C 678.683,1141.16 646.85,1162.99 621,1193.5C 576.556,1246.89 564.723,1306.89 585.5,1373.5C 586.465,1377.77 587.131,1382.11 587.5,1386.5C 547.691,1336.61 532.524,1279.94 542,1216.5C 555.628,1160.87 589.462,1123.71 643.5,1105C 683.039,1095.26 720.039,1101.09 754.5,1122.5 Z"/></g>
<g><path style="opacity:1" fill="#190f0c" d="M 1388.5,1157.5 C 1475.66,1154.68 1548.83,1185.01 1608,1248.5C 1636.2,1280.57 1655.2,1317.57 1665,1359.5C 1673.93,1408.11 1663.26,1451.78 1633,1490.5C 1605.1,1521.19 1570.26,1536.19 1528.5,1535.5C 1478.61,1533.82 1433.28,1518.65 1392.5,1490C 1345.54,1456.89 1311.37,1413.73 1290,1360.5C 1275.8,1319.83 1274.8,1278.83 1287,1237.5C 1305.78,1191.55 1339.61,1164.88 1388.5,1157.5 Z"/></g>
<g><path style="opacity:1" fill="#eeddcc" d="M 1389.5,1171.5 C 1475.32,1167.93 1546.49,1198.26 1603,1262.5C 1630.84,1295.85 1647.5,1334.18 1653,1377.5C 1656.36,1410.37 1650.36,1441.37 1635,1470.5C 1612.33,1505.76 1579.83,1524.26 1537.5,1526C 1497.7,1526.5 1460.7,1516.5 1426.5,1496C 1371.85,1464.69 1332.01,1420.19 1307,1362.5C 1295.17,1331.53 1291.17,1299.53 1295,1266.5C 1298.03,1235.26 1311.86,1210.1 1336.5,1191C 1342.39,1186.89 1348.72,1183.55 1355.5,1181C 1366.86,1177.46 1378.19,1174.29 1389.5,1171.5 Z"/></g>
<g><path style="opacity:1" fill="#7b532c" d="M 1291.5,1160.5 C 1280.83,1173.51 1270.16,1186.51 1259.5,1199.5C 1268.5,1185.2 1279.16,1172.2 1291.5,1160.5 Z"/></g>
<g><path style="opacity:1" fill="#180e0b" d="M 2471.5,1199.5 C 2481.01,1209.18 2486.84,1220.85 2489,1234.5C 2489.68,1243.52 2489.51,1252.52 2488.5,1261.5C 2483.01,1283.98 2472.35,1303.65 2456.5,1320.5C 2450.57,1317.48 2444.4,1315.15 2438,1313.5C 2437,1314.5 2436,1315.5 2435,1316.5C 2434.6,1316.27 2434.43,1315.94 2434.5,1315.5C 2443.26,1306.58 2451.09,1296.91 2458,1286.5C 2461.39,1280.49 2463.89,1274.15 2465.5,1267.5C 2470.48,1253.68 2470.65,1239.68 2466,1225.5C 2457.64,1208.74 2444.14,1202.24 2425.5,1206C 2388.19,1215.97 2362.02,1238.81 2347,1274.5C 2343.41,1283.84 2341.91,1293.51 2342.5,1303.5C 2345.77,1335.8 2363.11,1347.8 2394.5,1339.5C 2394.94,1339.43 2395.27,1339.6 2395.5,1340C 2394.21,1342.09 2393.04,1344.25 2392,1346.5C 2386.83,1350.33 2382.33,1354.83 2378.5,1360C 2379.42,1360.28 2380.08,1360.78 2380.5,1361.5C 2378.83,1361.5 2377.17,1361.5 2375.5,1361.5C 2363.89,1361.19 2353.55,1357.52 2344.5,1350.5C 2341.61,1349.12 2339.11,1347.12 2337,1344.5C 2326.6,1329.91 2321.6,1313.57 2322,1295.5C 2307.1,1301.13 2291.94,1305.97 2276.5,1310C 2135.16,1338.6 2001.49,1317.93 1875.5,1248C 1857.39,1237.62 1840.39,1225.79 1824.5,1212.5C 1824.74,1211.9 1825.24,1211.57 1826,1211.5C 1838.05,1214.74 1850.22,1217.41 1862.5,1219.5C 1935.8,1262.77 2014.8,1289.6 2099.5,1300C 2174.93,1305.41 2249.59,1300.07 2323.5,1284C 2325.1,1278.12 2326.93,1272.29 2329,1266.5C 2347.51,1225.31 2378.34,1198.48 2421.5,1186C 2440.29,1183.1 2456.96,1187.6 2471.5,1199.5 Z"/></g>
<g><path style="opacity:1" fill="#190e09" d="M 698.5,1196.5 C 726.268,1197.31 746.102,1210.31 758,1235.5C 762.676,1248.92 764.843,1262.75 764.5,1277C 765.37,1303.29 759.87,1328.13 748,1351.5C 740.781,1364.39 730.615,1374.22 717.5,1381C 701.116,1387.46 686.116,1385.13 672.5,1374C 648.931,1352.5 637.264,1325.66 637.5,1293.5C 635.138,1254.98 649.805,1225.15 681.5,1204C 687.257,1201.45 692.923,1198.95 698.5,1196.5 Z"/></g>
<g><path style="opacity:1" fill="#52372e" d="M 2465.5,1267.5 C 2463.55,1266.59 2461.55,1266.76 2459.5,1268C 2456,1270.25 2452.34,1272.25 2448.5,1274C 2439.13,1283.04 2429.46,1291.7 2419.5,1300C 2394.55,1316.61 2368.88,1317.78 2342.5,1303.5C 2341.91,1293.51 2343.41,1283.84 2347,1274.5C 2362.02,1238.81 2388.19,1215.97 2425.5,1206C 2444.14,1202.24 2457.64,1208.74 2466,1225.5C 2470.65,1239.68 2470.48,1253.68 2465.5,1267.5 Z"/></g>
<g><path style="opacity:1" fill="#51362d" d="M 694.5,1208.5 C 719.44,1207.06 736.274,1218.06 745,1241.5C 753.035,1275.87 750.035,1309.2 736,1341.5C 711.941,1380.07 687.607,1380.07 663,1341.5C 646.336,1306.08 646.669,1270.74 664,1235.5C 671.262,1223.06 681.428,1214.06 694.5,1208.5 Z"/></g>
<g><path style="opacity:1" fill="#785535" d="M 2419.5,1213.5 C 2435,1213.15 2440.17,1220.15 2435,1234.5C 2425.68,1246.16 2413.68,1253.5 2399,1256.5C 2391.52,1255.68 2387.35,1251.52 2386.5,1244C 2388.42,1236.4 2392.42,1230.07 2398.5,1225C 2405.27,1220.62 2412.27,1216.78 2419.5,1213.5 Z"/></g>
<g><path style="opacity:1" fill="#63432d" d="M 1247.5,1219.5 C 1245.29,1225.59 1242.79,1231.59 1240,1237.5C 1239.17,1242.14 1238.5,1246.81 1238,1251.5C 1210.22,1330.96 1218.56,1406.63 1263,1478.5C 1297.59,1528.07 1342.75,1564.9 1398.5,1589C 1481.45,1624.33 1567.61,1638.83 1657,1632.5C 1686.85,1632.16 1716.35,1628.16 1745.5,1620.5C 1747.56,1620.44 1749.22,1621.1 1750.5,1622.5C 1742.41,1625.13 1734.08,1627.3 1725.5,1629C 1706.95,1632.02 1688.29,1634.02 1669.5,1635C 1598.94,1641.47 1529.6,1635.14 1461.5,1616C 1414.37,1602.93 1370.71,1582.6 1330.5,1555C 1267.46,1508.75 1230.12,1446.92 1218.5,1369.5C 1217.68,1353.85 1217.35,1338.18 1217.5,1322.5C 1219.46,1285.65 1229.46,1251.32 1247.5,1219.5 Z"/></g>
<g><path style="opacity:1" fill="#d4baa1" d="M 521.5,1240.5 C 521.334,1250.84 521.5,1261.17 522,1271.5C 529.014,1336.87 557.514,1390.54 607.5,1432.5C 648.261,1467.07 695.261,1480.07 748.5,1471.5C 758.236,1562.93 779.402,1651.59 812,1737.5C 829.356,1783.57 853.356,1825.57 884,1863.5C 929.975,1916.42 987.475,1950.26 1056.5,1965C 1119.46,1978.41 1183.13,1984.07 1247.5,1982C 1334.58,1978.99 1420.92,1969.33 1506.5,1953C 1624.26,1929.56 1740.26,1899.23 1854.5,1862C 1920.05,1841.48 1984.39,1817.82 2047.5,1791C 2070.17,1779.67 2092.83,1768.33 2115.5,1757C 2197.47,1707.38 2267.97,1644.55 2327,1568.5C 2361.15,1521.53 2384.48,1469.53 2397,1412.5C 2400.91,1394.65 2402.08,1376.65 2400.5,1358.5C 2422.69,1350.97 2441.35,1338.3 2456.5,1320.5C 2472.35,1303.65 2483.01,1283.98 2488.5,1261.5C 2490.87,1273.97 2493.54,1286.64 2496.5,1299.5C 2495.33,1302.53 2495.99,1305.19 2498.5,1307.5C 2497.98,1308.61 2497.64,1309.77 2497.5,1311C 2499.2,1318.83 2500.87,1326.66 2502.5,1334.5C 2503.19,1338.58 2503.19,1342.75 2502.5,1347C 2503.91,1351.95 2505.24,1356.95 2506.5,1362C 2505.14,1365.05 2505.47,1367.88 2507.5,1370.5C 2507.24,1371.69 2506.91,1372.86 2506.5,1374C 2507.71,1379.19 2508.71,1384.36 2509.5,1389.5C 2508.21,1392.48 2508.54,1395.31 2510.5,1398C 2510.1,1402.73 2510.1,1407.4 2510.5,1412C 2512.41,1415.55 2512.41,1418.88 2510.5,1422C 2511.72,1423.44 2512.39,1425.1 2512.5,1427C 2512.92,1434.86 2512.92,1442.86 2512.5,1451C 2514.74,1454.25 2514.74,1457.41 2512.5,1460.5C 2513.27,1462.3 2513.93,1464.13 2514.5,1466C 2514.36,1485.52 2514.36,1505.02 2514.5,1524.5C 2514.24,1526.19 2513.57,1527.69 2512.5,1529C 2512.65,1536.98 2512.99,1544.98 2513.5,1553C 2511.24,1556.14 2511.24,1559.14 2513.5,1562C 2512.54,1563.71 2511.87,1565.54 2511.5,1567.5C 2511.79,1571.88 2511.79,1576.21 2511.5,1580.5C 2511.11,1582.27 2510.45,1583.94 2509.5,1585.5C 2510.05,1586.77 2510.38,1588.11 2510.5,1589.5C 2509.78,1597.83 2508.45,1605.99 2506.5,1614C 2506.39,1618.45 2506.39,1622.95 2506.5,1627.5C 2505.54,1629.48 2504.54,1631.48 2503.5,1633.5C 2505.02,1637.24 2504.35,1640.58 2501.5,1643.5C 2502.84,1647.63 2502.17,1651.47 2499.5,1655C 2500.06,1655.72 2500.39,1656.56 2500.5,1657.5C 2497.02,1668.66 2494.19,1680 2492,1691.5C 2489.95,1694.81 2488.95,1698.48 2489,1702.5C 2488.09,1703.33 2487.42,1704.33 2487,1705.5C 2486.67,1708.5 2486.33,1711.5 2486,1714.5C 2485.33,1715.17 2484.67,1715.83 2484,1716.5C 2484.27,1721.12 2482.94,1725.12 2480,1728.5C 2480.27,1733.12 2478.94,1737.12 2476,1740.5C 2476.29,1744.57 2474.96,1747.9 2472,1750.5C 2473.42,1754.62 2472.42,1757.95 2469,1760.5C 2468.01,1763.42 2467.35,1766.42 2467,1769.5C 2464.04,1772.1 2462.71,1775.43 2463,1779.5C 2460.74,1785 2458.07,1790.33 2455,1795.5C 2455.22,1799.25 2453.89,1802.25 2451,1804.5C 2451.22,1808.25 2449.89,1811.25 2447,1813.5C 2446.81,1817.45 2445.15,1820.45 2442,1822.5C 2442.22,1826.25 2440.89,1829.25 2438,1831.5C 2436,1836.17 2434,1840.83 2432,1845.5C 2429.21,1847.41 2427.88,1850.08 2428,1853.5C 2425.03,1855.77 2423.37,1858.77 2423,1862.5C 2420.11,1863.84 2418.78,1866.18 2419,1869.5C 2411.71,1880.81 2404.37,1892.14 2397,1903.5C 2397.09,1906.5 2395.76,1908.5 2393,1909.5C 2390.67,1913.83 2388.33,1918.17 2386,1922.5C 2383.24,1923.5 2381.91,1925.5 2382,1928.5C 2378.79,1930.71 2376.79,1933.71 2376,1937.5C 2375,1938.17 2374,1938.83 2373,1939.5C 2369,1946.17 2365,1952.83 2361,1959.5C 2360,1960.17 2359,1960.83 2358,1961.5C 2353.67,1968.5 2349.33,1975.5 2345,1982.5C 2342.12,1983.91 2340.45,1986.24 2340,1989.5C 2338.93,1990.62 2337.76,1991.62 2336.5,1992.5C 2329.24,2003.12 2322.07,2013.78 2315,2024.5C 2311.4,2027.91 2308.23,2031.57 2305.5,2035.5C 2304.97,2038.86 2303.13,2041.2 2300,2042.5C 2297.7,2046.16 2295.37,2049.83 2293,2053.5C 2289.77,2056.31 2286.77,2059.31 2284,2062.5C 2283.26,2065.95 2281.26,2068.28 2278,2069.5C 2276.01,2073.14 2273.68,2076.47 2271,2079.5C 2269.62,2081.21 2267.96,2082.55 2266,2083.5C 2265.44,2087.06 2263.44,2089.4 2260,2090.5C 2257.54,2094.37 2254.87,2098.04 2252,2101.5C 2248.61,2103.23 2246.27,2105.89 2245,2109.5C 2241.23,2113.32 2237.23,2116.99 2233,2120.5C 2232.18,2123.59 2230.18,2125.59 2227,2126.5C 2226,2130.17 2223.67,2132.5 2220,2133.5C 2219.6,2134.87 2219.1,2136.21 2218.5,2137.5C 2214.33,2141.17 2210.17,2144.83 2206,2148.5C 2205.38,2151.61 2203.54,2153.45 2200.5,2154C 2198.94,2157.81 2196.27,2160.47 2192.5,2162C 2191.54,2163.42 2190.71,2164.92 2190,2166.5C 2186.13,2169.25 2182.46,2172.25 2179,2175.5C 2178.21,2177.59 2177.04,2179.42 2175.5,2181C 2172.51,2183.63 2169.18,2185.96 2165.5,2188C 2164.5,2191.67 2162.17,2194 2158.5,2195C 2151.49,2202.37 2144.15,2209.54 2136.5,2216.5C 2127.74,2224.06 2118.74,2231.39 2109.5,2238.5C 2107.83,2239.33 2106.17,2240.17 2104.5,2241C 2101.5,2244 2098.5,2247 2095.5,2250C 2091.22,2251.97 2087.22,2254.3 2083.5,2257C 2081.48,2260.52 2078.48,2262.69 2074.5,2263.5C 2073.59,2264.33 2072.92,2265.33 2072.5,2266.5C 2067.98,2269.51 2063.31,2272.34 2058.5,2275C 2057.74,2276.51 2056.74,2277.85 2055.5,2279C 2048.92,2283.26 2042.25,2287.42 2035.5,2291.5C 2033.48,2295.02 2030.48,2297.19 2026.5,2298C 2024.63,2300.95 2021.96,2302.95 2018.5,2304C 2014.83,2307 2011.17,2310 2007.5,2313C 2004.06,2313.11 2001.72,2314.78 2000.5,2318C 1996.86,2318.15 1994.2,2319.82 1992.5,2323C 1988.5,2325 1984.5,2327 1980.5,2329C 1978.37,2332.3 1975.37,2334.13 1971.5,2334.5C 1970.69,2335.81 1969.69,2336.98 1968.5,2338C 1961.6,2341.48 1954.6,2344.81 1947.5,2348C 1945.59,2350.79 1942.92,2352.12 1939.5,2352C 1938.5,2353 1937.5,2354 1936.5,2355C 1931.17,2357 1925.83,2359 1920.5,2361C 1918.25,2363.89 1915.25,2365.22 1911.5,2365C 1907.23,2367.81 1902.9,2370.48 1898.5,2373C 1896.5,2373.33 1894.5,2373.67 1892.5,2374C 1888.17,2376.33 1883.83,2378.67 1879.5,2381C 1875.08,2381.13 1871.42,2382.8 1868.5,2386C 1864.43,2385.71 1861.1,2387.04 1858.5,2390C 1852.3,2391.26 1846.3,2392.92 1840.5,2395C 1839.45,2396.38 1838.12,2397.38 1836.5,2398C 1830.47,2399.4 1824.47,2400.74 1818.5,2402C 1817.5,2403 1816.5,2404 1815.5,2405C 1812.5,2405.33 1809.5,2405.67 1806.5,2406C 1805.83,2406.67 1805.17,2407.33 1804.5,2408C 1801.83,2408.33 1799.17,2408.67 1796.5,2409C 1788.3,2411.93 1779.97,2414.59 1771.5,2417C 1769.56,2417.74 1767.73,2417.58 1766,2416.5C 1764.58,2417.46 1763.08,2418.29 1761.5,2419C 1747.6,2421.79 1733.6,2424.63 1719.5,2427.5C 1716.1,2426.57 1712.93,2427.23 1710,2429.5C 1705.47,2429.23 1700.97,2429.23 1696.5,2429.5C 1691.5,2430.83 1686.5,2432.17 1681.5,2433.5C 1677.17,2433.48 1672.84,2433.48 1668.5,2433.5C 1666.9,2433.94 1665.4,2434.61 1664,2435.5C 1660.66,2434.07 1657.5,2434.4 1654.5,2436.5C 1653.25,2435.96 1652.09,2435.29 1651,2434.5C 1646.34,2435.66 1641.68,2436.66 1637,2437.5C 1633.79,2436.01 1630.79,2436.34 1628,2438.5C 1626.33,2437.83 1624.67,2437.17 1623,2436.5C 1621.69,2437.57 1620.19,2438.24 1618.5,2438.5C 1614.15,2438.51 1609.82,2438.51 1605.5,2438.5C 1578.67,2443.75 1551.67,2447.92 1524.5,2451C 1466.59,2455.76 1408.59,2456.76 1350.5,2454C 1263.43,2447.2 1179.43,2427.2 1098.5,2394C 1060.33,2376.25 1022.33,2357.92 984.5,2339C 935.899,2311.08 893.065,2275.91 856,2233.5C 842.658,2216.83 828.658,2200.83 814,2185.5C 783.123,2148.49 754.123,2109.83 727,2069.5C 693.959,2014.79 662.959,1958.79 634,1901.5C 615.281,1858.78 596.281,1816.78 577,1775.5C 577.126,1771.54 575.792,1768.2 573,1765.5C 571.667,1760.83 570.333,1756.17 569,1751.5C 566.113,1749.25 564.78,1746.25 565,1742.5C 564.385,1740.88 563.385,1739.55 562,1738.5C 560.667,1733.83 559.333,1729.17 558,1724.5C 555.907,1721.96 554.907,1718.96 555,1715.5C 551.761,1713.69 550.928,1711.19 552.5,1708C 550.951,1706.79 549.785,1705.29 549,1703.5C 548.938,1699.59 547.771,1696.09 545.5,1693C 545.645,1692.23 545.978,1691.56 546.5,1691C 544.122,1688.79 543.122,1686.29 543.5,1683.5C 541.46,1679.24 539.626,1674.91 538,1670.5C 538.093,1667.04 537.093,1664.04 535,1661.5C 532.958,1651.37 530.125,1641.54 526.5,1632C 527.891,1629.16 527.391,1626.66 525,1624.5C 524.257,1622.56 524.424,1620.73 525.5,1619C 524.789,1617.75 523.956,1616.58 523,1615.5C 522,1609.5 521,1603.5 520,1597.5C 517.609,1595.34 517.109,1592.84 518.5,1590C 517.756,1587.84 516.756,1585.84 515.5,1584C 515.96,1582.7 516.294,1581.37 516.5,1580C 515.901,1577.31 514.901,1574.81 513.5,1572.5C 514.921,1569.08 514.255,1566.08 511.5,1563.5C 512.046,1562.23 512.379,1560.89 512.5,1559.5C 511.232,1553.1 509.899,1546.76 508.5,1540.5C 509.723,1536.89 509.056,1533.56 506.5,1530.5C 507.063,1529.06 507.397,1527.56 507.5,1526C 506.347,1520.05 505.347,1514.05 504.5,1508C 505.707,1504.05 505.04,1500.38 502.5,1497C 503.43,1495.81 504.097,1494.47 504.5,1493C 502.359,1489.32 502.026,1485.49 503.5,1481.5C 500.924,1477.97 500.924,1474.47 503.5,1471C 502.278,1465.36 501.278,1459.69 500.5,1454C 500.975,1452.24 501.642,1450.57 502.5,1449C 499.983,1445.63 499.983,1442.3 502.5,1439C 501.541,1437.29 500.875,1435.46 500.5,1433.5C 501.788,1429.99 501.788,1426.49 500.5,1423C 501.068,1421.13 501.735,1419.3 502.5,1417.5C 501.833,1415.83 501.167,1414.17 500.5,1412.5C 501.265,1410.7 501.932,1408.87 502.5,1407C 502.214,1395.62 502.214,1384.29 502.5,1373C 503.484,1371.34 504.484,1369.68 505.5,1368C 502.916,1364.79 502.916,1361.62 505.5,1358.5C 505.167,1357.17 504.833,1355.83 504.5,1354.5C 505.648,1349.49 506.648,1344.49 507.5,1339.5C 506.309,1336.38 506.643,1333.38 508.5,1330.5C 508.244,1329.31 507.911,1328.14 507.5,1327C 509.13,1318.84 510.797,1310.67 512.5,1302.5C 511.978,1301.39 511.645,1300.23 511.5,1299C 512.753,1293.64 514.086,1288.31 515.5,1283C 515.167,1282 514.833,1281 514.5,1280C 517.859,1266.93 520.192,1253.76 521.5,1240.5 Z"/></g>
<g><path style="opacity:1" fill="#52372e" d="M 1514.5,1365.5 C 1513.71,1364.39 1513.21,1363.06 1513,1361.5C 1488.39,1396.93 1455.23,1408.76 1413.5,1397C 1400.77,1393.64 1389.11,1388.14 1378.5,1380.5C 1374.06,1378.31 1369.4,1377.48 1364.5,1378C 1360.7,1379.12 1357.37,1380.29 1354.5,1381.5C 1339.78,1348.14 1341.28,1315.48 1359,1283.5C 1372.53,1265.98 1390.37,1258.81 1412.5,1262C 1459.6,1273.44 1492.1,1301.6 1510,1346.5C 1512.11,1352.7 1513.61,1359.04 1514.5,1365.5 Z"/></g>
<g><path style="opacity:1" fill="#e0c1a4" d="M 1421.5,1277.5 C 1435.26,1277.02 1446.09,1282.36 1454,1293.5C 1455.17,1304.83 1450.01,1310.83 1438.5,1311.5C 1428.29,1310.31 1420.12,1305.65 1414,1297.5C 1410.13,1288.32 1412.63,1281.66 1421.5,1277.5 Z"/></g>
<g><path style="opacity:1" fill="#452d24" d="M 2465.5,1267.5 C 2463.89,1274.15 2461.39,1280.49 2458,1286.5C 2451.09,1296.91 2443.26,1306.58 2434.5,1315.5C 2422.39,1325.55 2409.06,1333.55 2394.5,1339.5C 2363.11,1347.8 2345.77,1335.8 2342.5,1303.5C 2368.88,1317.78 2394.55,1316.61 2419.5,1300C 2429.46,1291.7 2439.13,1283.04 2448.5,1274C 2452.34,1272.25 2456,1270.25 2459.5,1268C 2461.55,1266.76 2463.55,1266.59 2465.5,1267.5 Z"/></g>
<g><path style="opacity:1" fill="#23110a" d="M 2456.5,1320.5 C 2441.35,1338.3 2422.69,1350.97 2400.5,1358.5C 2396.58,1359.81 2392.58,1360.81 2388.5,1361.5C 2385.83,1361.5 2383.17,1361.5 2380.5,1361.5C 2380.08,1360.78 2379.42,1360.28 2378.5,1360C 2382.33,1354.83 2386.83,1350.33 2392,1346.5C 2393.04,1344.25 2394.21,1342.09 2395.5,1340C 2395.27,1339.6 2394.94,1339.43 2394.5,1339.5C 2409.06,1333.55 2422.39,1325.55 2434.5,1315.5C 2434.43,1315.94 2434.6,1316.27 2435,1316.5C 2436,1315.5 2437,1314.5 2438,1313.5C 2444.4,1315.15 2450.57,1317.48 2456.5,1320.5 Z"/></g>
<g><path style="opacity:1" fill="#a36f29" d="M 1217.5,1322.5 C 1217.35,1338.18 1217.68,1353.85 1218.5,1369.5C 1216.97,1360.55 1216.3,1351.39 1216.5,1342C 1216.5,1335.32 1216.83,1328.82 1217.5,1322.5 Z"/></g>
<g><path style="opacity:1" fill="#943b01" d="M 2400.5,1358.5 C 2402.08,1376.65 2400.91,1394.65 2397,1412.5C 2384.48,1469.53 2361.15,1521.53 2327,1568.5C 2267.97,1644.55 2197.47,1707.38 2115.5,1757C 2092.83,1768.33 2070.17,1779.67 2047.5,1791C 1984.39,1817.82 1920.05,1841.48 1854.5,1862C 1740.26,1899.23 1624.26,1929.56 1506.5,1953C 1420.92,1969.33 1334.58,1978.99 1247.5,1982C 1183.13,1984.07 1119.46,1978.41 1056.5,1965C 987.475,1950.26 929.975,1916.42 884,1863.5C 853.356,1825.57 829.356,1783.57 812,1737.5C 779.402,1651.59 758.236,1562.93 748.5,1471.5C 695.261,1480.07 648.261,1467.07 607.5,1432.5C 600.964,1418.22 594.631,1403.88 588.5,1389.5C 603.47,1405.97 620.137,1420.47 638.5,1433C 666.019,1450.38 696.019,1457.71 728.5,1455C 742.309,1453.42 755.976,1451.09 769.5,1448C 784.224,1442.42 797.557,1434.59 809.5,1424.5C 810.521,1425 810.688,1425.67 810,1426.5C 802.686,1438.65 793.186,1448.65 781.5,1456.5C 775.499,1460.17 769.165,1463.33 762.5,1466C 761.978,1466.56 761.645,1467.23 761.5,1468C 766.355,1498.61 771.855,1529.11 778,1559.5C 789.689,1617.26 806.189,1673.59 827.5,1728.5C 845.696,1776.93 871.53,1820.59 905,1859.5C 950.01,1906.1 1004.51,1935.6 1068.5,1948C 1131.22,1960.56 1194.55,1965.23 1258.5,1962C 1370.53,1956.57 1481.2,1941.23 1590.5,1916C 1722.43,1883.54 1852.77,1845.54 1981.5,1802C 2000.42,1793.8 2019.42,1785.8 2038.5,1778C 2051.17,1772.33 2063.51,1766.16 2075.5,1759.5C 2159.68,1711.09 2233.51,1649.75 2297,1575.5C 2347.97,1513.2 2378.47,1441.86 2388.5,1361.5C 2392.58,1360.81 2396.58,1359.81 2400.5,1358.5 Z"/></g>
<g><path style="opacity:1" fill="#462e26" d="M 1514.5,1365.5 C 1519.87,1393.91 1513.71,1419.58 1496,1442.5C 1477.8,1460.41 1456.3,1465.91 1431.5,1459C 1394.93,1443.93 1369.26,1418.09 1354.5,1381.5C 1357.37,1380.29 1360.7,1379.12 1364.5,1378C 1369.4,1377.48 1374.06,1378.31 1378.5,1380.5C 1389.11,1388.14 1400.77,1393.64 1413.5,1397C 1455.23,1408.76 1488.39,1396.93 1513,1361.5C 1513.21,1363.06 1513.71,1364.39 1514.5,1365.5 Z"/></g>
<g><path style="opacity:1" fill="#de911d" d="M 585.5,1373.5 C 621.208,1396.13 660.208,1409.29 702.5,1413C 737.64,1415.5 770.64,1408.17 801.5,1391C 808.637,1389 814.47,1390.83 819,1396.5C 821.491,1402.29 822.491,1408.29 822,1414.5C 819.861,1419.92 817.528,1425.25 815,1430.5C 805.924,1442.1 794.757,1450.77 781.5,1456.5C 793.186,1448.65 802.686,1438.65 810,1426.5C 810.688,1425.67 810.521,1425 809.5,1424.5C 797.557,1434.59 784.224,1442.42 769.5,1448C 755.976,1451.09 742.309,1453.42 728.5,1455C 696.019,1457.71 666.019,1450.38 638.5,1433C 620.137,1420.47 603.47,1405.97 588.5,1389.5C 588.443,1388.39 588.11,1387.39 587.5,1386.5C 587.131,1382.11 586.465,1377.77 585.5,1373.5 Z"/></g>
<g><path style="opacity:1" fill="#e1c2a5" d="M 1675.5,1468.5 C 1684.3,1467.48 1690.14,1471.15 1693,1479.5C 1695.12,1489.9 1694.79,1500.23 1692,1510.5C 1671.05,1570.08 1628.88,1598.92 1565.5,1597C 1556.04,1596.39 1547.04,1594.05 1538.5,1590C 1529.57,1583.56 1527.4,1575.39 1532,1565.5C 1535.72,1561.45 1540.22,1558.62 1545.5,1557C 1569.82,1557.87 1592.82,1552.87 1614.5,1542C 1625.54,1535.3 1635.04,1526.8 1643,1516.5C 1650.68,1505.14 1657.35,1493.14 1663,1480.5C 1666.4,1475.59 1670.57,1471.59 1675.5,1468.5 Z"/></g>
<g><path style="opacity:1" fill="#dcbda1" d="M 1467.5,1551.5 C 1480.79,1550.23 1490.29,1555.56 1496,1567.5C 1496.92,1589.58 1486.42,1599.75 1464.5,1598C 1452.57,1592.23 1447.4,1582.73 1449,1569.5C 1452.44,1560.56 1458.61,1554.56 1467.5,1551.5 Z"/></g>
<g><path style="opacity:1" fill="#e1951f" d="M 2375.5,1361.5 C 2377.17,1361.5 2378.83,1361.5 2380.5,1361.5C 2383.17,1361.5 2385.83,1361.5 2388.5,1361.5C 2378.47,1441.86 2347.97,1513.2 2297,1575.5C 2233.51,1649.75 2159.68,1711.09 2075.5,1759.5C 2074.76,1759.63 2074.09,1759.46 2073.5,1759C 2074.17,1757.67 2075.17,1756.67 2076.5,1756C 2074.82,1753.66 2073.15,1751.32 2071.5,1749C 2072.15,1747.56 2072.48,1746.06 2072.5,1744.5C 2069.24,1746.43 2067.4,1745.43 2067,1741.5C 2066.67,1741.83 2066.33,1742.17 2066,1742.5C 2064.62,1740.79 2062.96,1739.45 2061,1738.5C 2060.73,1736.9 2060.23,1735.4 2059.5,1734C 2060.47,1732.8 2061.47,1732.3 2062.5,1732.5C 2060.64,1729.81 2058.31,1727.64 2055.5,1726C 2055.83,1725.67 2056.17,1725.33 2056.5,1725C 2053.47,1724.71 2050.64,1724.55 2048,1724.5C 1967.22,1744.74 1886.38,1765.07 1805.5,1785.5C 1889.94,1763.47 1974.27,1740.64 2058.5,1717C 2103.95,1696.78 2144.95,1669.78 2181.5,1636C 2224.14,1596.69 2263.98,1554.86 2301,1510.5C 2310.83,1497.52 2320.16,1484.18 2329,1470.5C 2348.15,1436.86 2363.48,1401.53 2375,1364.5C 2376.73,1363.75 2378.57,1363.25 2380.5,1363C 2378.62,1362.8 2376.95,1362.3 2375.5,1361.5 Z"/></g>
<g><path style="opacity:1" fill="#df921e" d="M 2075.5,1759.5 C 2063.51,1766.16 2051.17,1772.33 2038.5,1778C 2019.42,1785.8 2000.42,1793.8 1981.5,1802C 1852.77,1845.54 1722.43,1883.54 1590.5,1916C 1481.2,1941.23 1370.53,1956.57 1258.5,1962C 1194.55,1965.23 1131.22,1960.56 1068.5,1948C 1004.51,1935.6 950.01,1906.1 905,1859.5C 871.53,1820.59 845.696,1776.93 827.5,1728.5C 866.686,1755.61 908.019,1779.44 951.5,1800C 1060,1846.13 1173.33,1868.63 1291.5,1867.5C 1373.13,1866.4 1454.13,1858.57 1534.5,1844C 1625.55,1827.76 1715.89,1808.26 1805.5,1785.5C 1886.38,1765.07 1967.22,1744.74 2048,1724.5C 2050.64,1724.55 2053.47,1724.71 2056.5,1725C 2056.17,1725.33 2055.83,1725.67 2055.5,1726C 2058.31,1727.64 2060.64,1729.81 2062.5,1732.5C 2061.47,1732.3 2060.47,1732.8 2059.5,1734C 2060.23,1735.4 2060.73,1736.9 2061,1738.5C 2062.96,1739.45 2064.62,1740.79 2066,1742.5C 2066.33,1742.17 2066.67,1741.83 2067,1741.5C 2067.4,1745.43 2069.24,1746.43 2072.5,1744.5C 2072.48,1746.06 2072.15,1747.56 2071.5,1749C 2073.15,1751.32 2074.82,1753.66 2076.5,1756C 2075.17,1756.67 2074.17,1757.67 2073.5,1759C 2074.09,1759.46 2074.76,1759.63 2075.5,1759.5 Z"/></g>
<g><path style="opacity:1" fill="#dcc5ae" d="M 2505.5,1272.5 C 2509.43,1291.73 2513.26,1311.06 2517,1330.5C 2522.07,1366.05 2526.07,1401.72 2529,1437.5C 2533.08,1526.36 2526.75,1614.36 2510,1701.5C 2497.77,1747.54 2480.11,1791.21 2457,1832.5C 2425.92,1885.01 2393.58,1936.67 2360,1987.5C 2325.43,2033.41 2290.1,2078.74 2254,2123.5C 2227.56,2153.44 2199.06,2181.11 2168.5,2206.5C 2168.39,2204.1 2169.39,2202.26 2171.5,2201C 2192.51,2183.75 2212.34,2165.25 2231,2145.5C 2276.54,2094.4 2319.21,2041.06 2359,1985.5C 2404.48,1919.79 2445.31,1851.13 2481.5,1779.5C 2490.72,1755.34 2499.22,1731 2507,1706.5C 2511.94,1678.47 2516.61,1650.47 2521,1622.5C 2521.83,1601.01 2523.83,1579.68 2527,1558.5C 2530.74,1489.87 2527.74,1421.53 2518,1353.5C 2513.67,1326.5 2509.5,1299.5 2505.5,1272.5 Z"/></g>
<g><path style="opacity:0.004" fill="#fe0000" d="M 1469.5,2924.5 C 1470.34,2924.84 1470.67,2925.51 1470.5,2926.5C 1468.3,2926.59 1467.97,2925.92 1469.5,2924.5 Z"/></g>
</svg>
